<?xml version="1.0" ?><!DOCTYPE svg  PUBLIC '-//W3C//DTD SVG 1.1//EN'  'http://www.w3.org/Graphics/SVG/1.1/DTD/svg11.dtd'><svg enable-background="new 0 0 100 100" height="100px" id="Layer_1" version="1.1" viewBox="0 0 100 100" width="100px" xml:space="preserve" xmlns="http://www.w3.org/2000/svg" xmlns:xlink="http://www.w3.org/1999/xlink"><g><defs><rect height="100" id="SVGID_1_" width="100"/></defs><path fill="#ffffff" d="M5,59.139V46.926c0-1.119,0.919-2.034,2.045-2.034h21.581L19.23,61.175H7.045   C5.919,61.175,5,60.262,5,59.139 M20.373,84.146l-6.887,4.666c-0.927,0.631-1.582,0.231-1.454-0.881l0.919-7.983   c0.128-1.112,1.03-1.566,2.005-1.011l5.33,3.045C21.26,82.541,21.3,83.52,20.373,84.146 M22.027,79.646l-5.33-3.045   c-0.975-0.558-1.318-1.806-0.751-2.775l24.681-42.786c0.56-0.972,1.822-1.313,2.796-0.749l5.33,3.038   c0.975,0.564,1.311,1.813,0.751,2.782L24.823,78.898C24.264,79.869,23.001,80.202,22.027,79.646 M40.811,61.175l9.396-16.283h5.41   l7.63,16.283H40.811z M71.413,66.035c-2.134-1.066-12.761-25.478-15.483-31.847c-2.726-6.369-10.956-23.322-8.293-24.642   c1.894-0.946,8.693,12.404,13.79,20.419C66.516,37.98,77.159,58.646,78.469,61c1.303,2.359-1.254,4.327-2.676,4.915   C74.37,66.504,73.546,67.091,71.413,66.035 M78.396,77.254l-3.211-5.05c-0.664-1.05-0.319-2.347,0.758-2.901l3.061-1.566   c1.079-0.549,2.43-0.104,3.004,0.994l2.533,4.851c0.576,1.097,0.184,2.505-0.855,3.125l-2.188,1.303   C80.458,78.637,79.061,78.295,78.396,77.254 M90.214,90.5c-0.671-2.139-5.793-2.281-8.086-5.503   c-2.301-3.211-0.399-4.865,0.399-5.629C91.828,74.152,90.214,90.5,90.214,90.5 M95,59.139c0,1.123-0.919,2.036-2.045,2.036H82.152   c-0.119-0.628-0.312-1.256-0.639-1.845c-0.281-0.501-0.992-1.852-1.982-3.736c-1.43-2.719-3.483-6.607-5.682-10.702h19.104   c1.126,0,2.045,0.915,2.045,2.034L95,59.139L95,59.139z"/></g></svg>