<svg height="472pt" viewBox="-3 0 471 472" width="472pt" xmlns="http://www.w3.org/2000/svg"><path d="m304.5 232h80v24h-80zm0 0" fill="#d64d37"/><path d="m416.5 48c26.507812 0 48 21.492188 48 48v120c-26.507812 0-48-21.492188-48-48zm0 0" fill="#fd9a30"/><path d="m416.5 256h-32c-4.417969 0-8-3.582031-8-8v-56h-64v56c0 4.417969-3.582031 8-8 8h-32c-26.507812 0-48 21.492188-48 48v168h240v-168c0-26.507812-21.492188-48-48-48zm0 0" fill="#fec9a3"/><path d="m376.5 224.425781v-32.425781h-64v32.425781c20.136719 10.101563 43.863281 10.101563 64 0zm0 0" fill="#fab989"/><path d="m344.5 216c-39.765625 0-72-32.234375-72-72v-72c24-32 112-40 144 0v72c0 39.765625-32.234375 72-72 72zm0 0" fill="#fec9a3"/><path d="m320.5 124c0 6.628906-5.371094 12-12 12s-12-5.371094-12-12 5.371094-12 12-12 12 5.371094 12 12zm0 0" fill="#8c563b"/><path d="m392.5 124c0 6.628906-5.371094 12-12 12s-12-5.371094-12-12 5.371094-12 12-12 12 5.371094 12 12zm0 0" fill="#8c563b"/><path d="m56.5 288h32v64h-32zm0 0" fill="#fc3"/><path d="m.5 224h144v64h-144zm0 0" fill="#f05d46"/><g fill="#d64d37"><path d="m104.5 248h16v16h-16zm0 0"/><path d="m72.5 248h16v16h-16zm0 0"/><path d="m40.5 248h16v16h-16zm0 0"/><path d="m320.5 0h48c26.507812 0 48 21.492188 48 48v32h-144v-32c0-26.507812 21.492188-48 48-48zm0 0"/></g><path d="m394.003906 94c-31.515625-14.007812-67.492187-14.007812-99.007812 0-4.949219 2.199219-10.675782 1.746094-15.214844-1.207031-4.542969-2.953125-7.28125-8-7.28125-13.417969v-5.960938c0-5.8125 3.148438-11.167968 8.230469-13.988281 39.660156-22.035156 87.878906-22.035156 127.539062 0 5.082031 2.820313 8.230469 8.175781 8.230469 13.988281v5.960938c0 5.417969-2.738281 10.464844-7.28125 13.417969-4.539062 2.953125-10.265625 3.40625-15.214844 1.207031zm0 0" fill="#f05d46"/><path d="m264.5 96h8v48h-8c-13.253906 0-24-10.746094-24-24s10.746094-24 24-24zm0 0" fill="#feb784"/><path d="m424.5 96h-8v48h8c13.253906 0 24-10.746094 24-24s-10.746094-24-24-24zm0 0" fill="#feb784"/><path d="m344.5 176c-13.253906 0-24-10.746094-24-24h16c0 4.417969 3.582031 8 8 8s8-3.582031 8-8h16c0 13.253906-10.746094 24-24 24zm0 0" fill="#fa996b"/><path d="m224.5 472h-224v-120h160l64 72zm0 0" fill="#ffb60c"/><path d="m96.5 472h-96v-120h32l64 72zm0 0" fill="#fc3"/><path d="m464.5 304c0-26.507812-21.492188-48-48-48h-16l-16-24c-9.894531 11.871094-24.546875 18.734375-40 18.734375s-30.105469-6.863281-40-18.734375l-16 24h-16c-26.507812 0-48 21.492188-48 48v40h38.335938c-8.945313 21.46875-5.222657 46.128906 9.664062 64v64h144v-64c14.886719-17.871094 18.609375-42.53125 9.664062-64h38.335938zm0 0" fill="#f05d46"/><path d="m266.011719 360h56v32h-56zm0 0" fill="#d64d37"/><path d="m266.011719 344h56v32h-56zm0 0" fill="#ebebe8"/><path d="m266.011719 360h56v16h-56zm0 0" fill="#dedede"/><path d="m344.5 291.390625c-21.261719.066406-41.636719-8.503906-56.457031-23.75-1.582031-1.644531-2.394531-3.882813-2.234375-6.160156.160156-2.277344 1.28125-4.378907 3.082031-5.785157 3.140625-2.480468 7.644531-2.214843 10.464844.625 11.855469 12.191407 28.140625 19.070313 45.144531 19.070313s33.289062-6.878906 45.144531-19.070313c2.820313-2.839843 7.324219-3.105468 10.464844-.625 1.800781 1.40625 2.921875 3.507813 3.082031 5.785157.160156 2.277343-.652344 4.515625-2.234375 6.160156-14.820312 15.246094-35.195312 23.816406-56.457031 23.75zm0 0" fill="#e3523b"/><path d="m300.757812 472h115.742188v-64c13.179688-15.839844 17.671875-37.171875 12-56.984375-37.414062 55.425781-88.921875 99.769531-127.742188 120.984375zm0 0" fill="#e3523b"/><path d="m433.125 344h31.375v-40c-.007812-5.960938-1.128906-11.867188-3.304688-17.414062-7.160156 20.132812-16.578124 39.394531-28.070312 57.414062zm0 0" fill="#e3523b"/><path d="m336.5 250.046875v221.953125h16v-221.953125c-5.300781.816406-10.699219.816406-16 0zm0 0" fill="#d64d37"/><path d="m136.5 376h16v16h-16zm0 0" fill="#f05d46"/><path d="m104.5 376h16v16h-16zm0 0" fill="#f05d46"/><path d="m160.5 408h16v16h-16zm0 0" fill="#f05d46"/><path d="m128.5 408h16v16h-16zm0 0" fill="#f05d46"/><path d="m56.5 288h32v24h-32zm0 0" fill="#ffb60c"/></svg>