<?xml version="1.0" encoding="UTF-8"?>
<svg width="64px" height="64px" viewBox="0 0 64 64" version="1.1" xmlns="http://www.w3.org/2000/svg" xmlns:xlink="http://www.w3.org/1999/xlink">
    <!-- Generator: Sketch 53 (72520) - https://sketchapp.com -->
    <title>iconfinder_document_1055071</title>
    <desc>Created with Sketch.</desc>
    <g id="Page-1" stroke="none" stroke-width="1" fill="none" fill-rule="evenodd">
        <g id="iconfinder_document_1055071" fill-rule="nonzero">
            <circle id="Oval" fill="#7EC9FD" cx="32" cy="32" r="32"></circle>
            <g id="Group" transform="translate(16.000000, 12.000000)">
                <g id="Path">
                    <g opacity="0.2" transform="translate(0.000000, 2.000000)" fill="#231F20">
                        <path d="M20,9 L20,0 L3,0 C1.343,0 0,1.343 0,3 L0,37 C0,38.657 1.343,40 3,40 L29,40 C30.657,40 32,38.657 32,37 L32,12 L23,12 C21.343,12 20,10.657 20,9 Z"></path>
                    </g>
                    <path d="M20,9 L20,0 L3,0 C1.343,0 0,1.343 0,3 L0,37 C0,38.657 1.343,40 3,40 L29,40 C30.657,40 32,38.657 32,37 L32,12 L23,12 C21.343,12 20,10.657 20,9 Z" fill="#F1F1F1"></path>
                    <g opacity="0.2" transform="translate(21.000000, 11.000000)" fill="#231F20">
                        <polygon points="0.016 0.294 11 10 11 1"></polygon>
                    </g>
                    <path d="M20,0 L20,9 C20,10.657 21.343,12 23,12 L32,12 L20,0 Z" fill="#FFFFFF"></path>
                </g>
                <g transform="translate(6.000000, 10.000000)" fill="#104084" id="Rectangle">
                    <rect x="0" y="0" width="9.625" height="2"></rect>
                </g>
                <g transform="translate(6.000000, 20.000000)" fill="#104084" id="Rectangle">
                    <rect x="0" y="0" width="20" height="2"></rect>
                </g>
                <g transform="translate(6.000000, 15.000000)" fill="#104084" id="Rectangle">
                    <rect x="0" y="0" width="20" height="2"></rect>
                </g>
                <g transform="translate(6.000000, 25.000000)" fill="#104084" id="Rectangle">
                    <rect x="0" y="0" width="20" height="2"></rect>
                </g>
                <g transform="translate(6.000000, 30.000000)" fill="#104084" id="Rectangle">
                    <rect x="0" y="0" width="20" height="2"></rect>
                </g>
            </g>
        </g>
    </g>
</svg>