<?xml version="1.0" encoding="UTF-8"?>
<svg width="101px" height="142px" viewBox="0 0 101 142" version="1.1" xmlns="http://www.w3.org/2000/svg" xmlns:xlink="http://www.w3.org/1999/xlink">
    <!-- Generator: Sketch 52.6 (67491) - http://www.bohemiancoding.com/sketch -->
    <title>dowload</title>
    <desc>Created with Sketch.</desc>
    <g id="Page-1" stroke="none" stroke-width="1" fill="none" fill-rule="evenodd">
        <g id="dowload" fill="#FFFFFF" fill-rule="nonzero">
            <path d="M100.674,125.138 L0.793,125.138 L0.793,141.732 L100.674,141.732 L100.674,125.138 Z M99.019,58.776 C96.458,56.214 92.303,56.214 89.744,58.776 L57.21,91.312 L57.21,6.562 C57.21,2.936 54.269,0 50.648,0 C47.024,0 44.088,2.937 44.088,6.563 L44.088,91.313 L11.992,59.218 C9.43,56.654 5.277,56.654 2.715,59.218 C0.15,61.78 0.15,65.934 2.715,68.497 L46.009,111.79 C46.159,111.944 46.323,112.089 46.49,112.228 C46.566,112.29 46.645,112.341 46.724,112.404 C46.818,112.469 46.91,112.546 47.003,112.61 C47.1,112.673 47.195,112.724 47.289,112.784 C47.377,112.838 47.463,112.889 47.554,112.937 C47.654,112.993 47.753,113.037 47.852,113.084 C47.949,113.129 48.042,113.175 48.135,113.216 C48.233,113.256 48.331,113.288 48.43,113.321 C48.534,113.359 48.637,113.399 48.742,113.43 C48.843,113.46 48.939,113.482 49.039,113.507 C49.147,113.53 49.253,113.565 49.363,113.585 C49.478,113.606 49.594,113.618 49.709,113.639 C49.806,113.654 49.901,113.671 49.998,113.681 C50.428,113.723 50.863,113.723 51.293,113.681 C51.393,113.671 51.484,113.654 51.582,113.639 C51.696,113.618 51.815,113.61 51.926,113.585 C52.035,113.564 52.143,113.53 52.25,113.507 C52.352,113.482 52.449,113.46 52.549,113.43 C52.654,113.399 52.756,113.359 52.861,113.321 C52.963,113.291 53.056,113.259 53.156,113.216 C53.252,113.175 53.347,113.129 53.439,113.084 C53.539,113.036 53.638,112.992 53.736,112.937 C53.827,112.889 53.913,112.833 54,112.784 C54.098,112.724 54.193,112.674 54.287,112.61 C54.383,112.546 54.476,112.469 54.568,112.404 C54.644,112.342 54.724,112.291 54.801,112.228 C55.05,112.024 55.28,111.791 55.495,111.558 C55.571,111.491 55.649,111.427 55.724,111.355 L99.018,68.059 C101.581,65.491 101.581,61.337 99.019,58.776 Z" id="Shape"></path>
        </g>
    </g>
</svg>