<svg height="512" viewBox="0 0 512 512" width="512" xmlns="http://www.w3.org/2000/svg"><path d="m47.996 176h416.001v256h-416.001z" fill="#e1e1e1"/><path d="m143.997 103.994h224v272h-224z" fill="#ededed"/><path d="m256 407.994a24 24 0 0 1 24 24v56a0 0 0 0 1 0 0h-48a0 0 0 0 1 0 0v-56a24 24 0 0 1 24-24z" fill="#b9b9b9"/><path d="m176 407.994a24 24 0 0 1 24 24v56a0 0 0 0 1 0 0h-48a0 0 0 0 1 0 0v-56a24 24 0 0 1 24-24z" fill="#b9b9b9"/><path d="m192 439.994a23.882 23.882 0 0 0 -36.435-20.435 23.785 23.785 0 0 0 -3.565 12.435v56h40z" fill="#cdcdcd"/><path d="m272 439.994a23.882 23.882 0 0 0 -36.435-20.435 23.785 23.785 0 0 0 -3.565 12.435v56h40z" fill="#cdcdcd"/><path d="m336 407.994a24 24 0 0 1 24 24v56a0 0 0 0 1 0 0h-48a0 0 0 0 1 0 0v-56a24 24 0 0 1 24-24z" fill="#b9b9b9"/><g fill="#f8f8f8"><path d="m199.997 375.994h32v112h-32z"/><path d="m279.997 375.994h32v112h-32z"/><path d="m119.997 375.994h32v112h-32z"/><path d="m359.997 375.994h32v112h-32z"/><path d="m95.996 343.994h320.001v32h-320.001z"/></g><circle cx="255.997" cy="111.994" fill="#eecb8c" r="88"/><circle cx="255.997" cy="111.994" fill="#fcd795" r="76"/><path d="m303.997 87.994h-24v-24h-48v24h-24v48h24v24h48v-24h24z" fill="#83bd93"/><path d="m239.997 279.994h32v32h-32z" fill="#69b9e7"/><path d="m239.997 215.994h32v32h-32z" fill="#69b9e7"/><path d="m175.997 215.994h32v32h-32z" fill="#69b9e7"/><path d="m79.996 215.994h32v32h-32z" fill="#5fa6d0"/><path d="m79.996 279.994h32v32h-32z" fill="#5fa6d0"/><path d="m175.997 279.994h32v32h-32z" fill="#69b9e7"/><path d="m303.997 215.994h32v32h-32z" fill="#69b9e7"/><path d="m303.997 279.994h32v32h-32z" fill="#69b9e7"/><path d="m399.997 215.994h32v32h-32z" fill="#5fa6d0"/><path d="m399.997 279.994h32v32h-32z" fill="#5fa6d0"/><path d="m47.996 423.994h72v64h-72z" fill="#8dc5bc"/><path d="m391.997 423.994h72v64h-72z" fill="#8dc5bc"/><path d="m47.996 183.994v-32l96.001-24v56z" fill="#8dc5bc"/><path d="m463.997 183.994v-32l-96-24v56z" fill="#8dc5bc"/><path d="m352 439.994a23.882 23.882 0 0 0 -36.435-20.435 23.785 23.785 0 0 0 -3.565 12.435v56h40z" fill="#cdcdcd"/><path d="m151.997 375.994h48v8h-48z" fill="#cdcdcd"/><path d="m231.997 375.994h48v8h-48z" fill="#cdcdcd"/><path d="m311.997 375.994h48v8h-48z" fill="#cdcdcd"/></svg>