<?xml version="1.0" encoding="UTF-8"?>
<svg width="18px" height="10px" viewBox="0 0 18 10" version="1.1" xmlns="http://www.w3.org/2000/svg" xmlns:xlink="http://www.w3.org/1999/xlink">
    <!-- Generator: Sketch 52.6 (67491) - http://www.bohemiancoding.com/sketch -->
    <title>infinity</title>
    <desc>Created with Sketch.</desc>
    <g id="Page-1" stroke="none" stroke-width="1" fill="none" fill-rule="evenodd">
        <g id="infinity" fill="#FFFFFF" fill-rule="nonzero">
            <path d="M13.433,0.596 C12.28,0.596 11.196,1.045 10.397,1.842 L9.001,3.182 L7.626,1.862 C6.811,1.045 5.725,0.596 4.571,0.596 C3.417,0.596 2.332,1.047 1.518,1.862 C0.701,2.678 0.251,3.762 0.251,4.917 C0.251,6.069 0.7,7.155 1.517,7.97 C2.331,8.786 3.416,9.236 4.571,9.236 C5.724,9.236 6.81,8.787 7.607,7.988 L9.002,6.65 L10.378,7.97 C11.193,8.786 12.279,9.236 13.433,9.236 C14.587,9.236 15.671,8.787 16.486,7.97 C17.303,7.156 17.753,6.07 17.753,4.915 C17.753,3.76 17.304,2.677 16.487,1.86 C15.67,1.045 14.586,0.596 13.433,0.596 Z M5.857,6.201 C5.17,6.889 3.973,6.889 3.285,6.201 C2.941,5.857 2.752,5.4 2.752,4.916 C2.752,4.43 2.941,3.975 3.287,3.629 C3.629,3.285 4.086,3.096 4.571,3.096 C5.056,3.096 5.513,3.285 5.876,3.647 L7.197,4.917 L5.857,6.201 Z M14.718,6.201 C14.031,6.89 12.852,6.906 12.128,6.183 L10.807,4.913 L12.146,3.628 C12.834,2.94 14.032,2.94 14.719,3.626 C15.063,3.972 15.252,4.427 15.252,4.913 C15.252,5.399 15.062,5.857 14.718,6.201 Z" id="Shape"></path>
        </g>
    </g>
</svg>