<?xml version="1.0" encoding="UTF-8"?>
<svg width="64px" height="64px" viewBox="0 0 64 64" version="1.1" xmlns="http://www.w3.org/2000/svg" xmlns:xlink="http://www.w3.org/1999/xlink">
    <!-- Generator: Sketch 53 (72520) - https://sketchapp.com -->
    <title>iconfinder_keyboard_1055039</title>
    <desc>Created with Sketch.</desc>
    <g id="Page-1" stroke="none" stroke-width="1" fill="none" fill-rule="evenodd">
        <g id="iconfinder_keyboard_1055039" fill-rule="nonzero">
            <circle id="Oval" fill="#7EC9FD" cx="32" cy="32" r="32"></circle>
            <path d="M52,42.921 C52,44.069 51.105,45 50,45 L14,45 C12.895,45 12,44.069 12,42.921 L12,26.079 C12,24.931 12.895,24 14,24 L50,24 C51.105,24 52,24.931 52,26.079 L52,42.921 Z" id="Path" fill="#231F20" opacity="0.2"></path>
            <path d="M52,40.921 C52,42.069 51.105,43 50,43 L14,43 C12.895,43 12,42.069 12,40.921 L12,24.079 C12,22.931 12.895,22 14,22 L50,22 C51.105,22 52,22.931 52,24.079 L52,40.921 Z" id="Path" fill="#104084"></path>
            <g id="Group" opacity="0.2" transform="translate(14.000000, 26.000000)" fill="#231F20">
                <path d="M25.885,12 L10.115,12 C9.223,12 8.5,12.672 8.5,13.5 C8.5,14.328 9.223,15 10.115,15 L25.886,15 C26.778,15 27.501,14.328 27.501,13.5 C27.501,12.672 26.777,12 25.885,12 Z" id="Path"></path>
                <circle id="Oval" cx="6" cy="13.5" r="1.5"></circle>
                <circle id="Oval" cx="2" cy="13.5" r="1.5"></circle>
                <circle id="Oval" cx="34" cy="13.5" r="1.5"></circle>
                <circle id="Oval" cx="30" cy="13.5" r="1.5"></circle>
                <path d="M6,7.85 L2,7.85 C1.172,7.85 0.5,8.522 0.5,9.35 C0.5,10.178 1.172,10.85 2,10.85 L6,10.85 C6.828,10.85 7.5,10.178 7.5,9.35 C7.5,8.521 6.828,7.85 6,7.85 Z" id="Path"></path>
                <path d="M34,7.85 L30,7.85 C29.172,7.85 28.5,8.522 28.5,9.35 C28.5,10.178 29.172,10.85 30,10.85 L34,10.85 C34.828,10.85 35.5,10.178 35.5,9.35 C35.5,8.521 34.828,7.85 34,7.85 Z" id="Path"></path>
                <circle id="Oval" cx="6" cy="5.5" r="1.5"></circle>
                <circle id="Oval" cx="2" cy="5.5" r="1.5"></circle>
                <circle id="Oval" cx="34" cy="5.5" r="1.5"></circle>
                <circle id="Oval" cx="30" cy="5.5" r="1.5"></circle>
                <circle id="Oval" cx="6" cy="1.516" r="1.5"></circle>
                <circle id="Oval" cx="2" cy="1.516" r="1.5"></circle>
                <circle id="Oval" cx="14" cy="9.35" r="1.5"></circle>
                <circle id="Oval" cx="10" cy="9.35" r="1.5"></circle>
                <circle id="Oval" cx="14" cy="5.5" r="1.5"></circle>
                <circle id="Oval" cx="10" cy="5.5" r="1.5"></circle>
                <circle id="Oval" cx="14" cy="1.516" r="1.5"></circle>
                <circle id="Oval" cx="10" cy="1.516" r="1.5"></circle>
                <circle id="Oval" cx="22" cy="9.35" r="1.5"></circle>
                <circle id="Oval" cx="18" cy="9.35" r="1.5"></circle>
                <circle id="Oval" cx="22" cy="5.5" r="1.5"></circle>
                <circle id="Oval" cx="18" cy="5.5" r="1.5"></circle>
                <circle id="Oval" cx="22" cy="1.516" r="1.5"></circle>
                <circle id="Oval" cx="26" cy="9.35" r="1.5"></circle>
                <circle id="Oval" cx="26" cy="5.5" r="1.5"></circle>
                <circle id="Oval" cx="26" cy="1.516" r="1.5"></circle>
                <circle id="Oval" cx="18" cy="1.516" r="1.5"></circle>
                <circle id="Oval" cx="34" cy="1.516" r="1.5"></circle>
                <circle id="Oval" cx="30" cy="1.516" r="1.5"></circle>
            </g>
            <g id="Group" transform="translate(14.000000, 25.000000)" fill="#FFFFFF">
                <path d="M25.885,12 L10.115,12 C9.223,12 8.5,12.672 8.5,13.5 C8.5,14.328 9.223,15 10.115,15 L25.886,15 C26.778,15 27.501,14.328 27.501,13.5 C27.501,12.672 26.777,12 25.885,12 Z" id="Path"></path>
                <circle id="Oval" cx="6" cy="13.5" r="1.5"></circle>
                <circle id="Oval" cx="2" cy="13.5" r="1.5"></circle>
                <circle id="Oval" cx="34" cy="13.5" r="1.5"></circle>
                <circle id="Oval" cx="30" cy="13.5" r="1.5"></circle>
                <path d="M6,7.85 L2,7.85 C1.172,7.85 0.5,8.522 0.5,9.35 C0.5,10.178 1.172,10.85 2,10.85 L6,10.85 C6.828,10.85 7.5,10.178 7.5,9.35 C7.5,8.521 6.828,7.85 6,7.85 Z" id="Path"></path>
                <path d="M34,7.85 L30,7.85 C29.172,7.85 28.5,8.522 28.5,9.35 C28.5,10.178 29.172,10.85 30,10.85 L34,10.85 C34.828,10.85 35.5,10.178 35.5,9.35 C35.5,8.521 34.828,7.85 34,7.85 Z" id="Path"></path>
                <circle id="Oval" cx="6" cy="5.5" r="1.5"></circle>
                <circle id="Oval" cx="2" cy="5.5" r="1.5"></circle>
                <circle id="Oval" cx="34" cy="5.5" r="1.5"></circle>
                <circle id="Oval" cx="30" cy="5.5" r="1.5"></circle>
                <circle id="Oval" cx="6" cy="1.516" r="1.5"></circle>
                <circle id="Oval" cx="2" cy="1.516" r="1.5"></circle>
                <circle id="Oval" cx="14" cy="9.35" r="1.5"></circle>
                <circle id="Oval" cx="10" cy="9.35" r="1.5"></circle>
                <circle id="Oval" cx="14" cy="5.5" r="1.5"></circle>
                <circle id="Oval" cx="10" cy="5.5" r="1.5"></circle>
                <circle id="Oval" cx="14" cy="1.516" r="1.5"></circle>
                <circle id="Oval" cx="10" cy="1.516" r="1.5"></circle>
                <circle id="Oval" cx="22" cy="9.35" r="1.5"></circle>
                <circle id="Oval" cx="18" cy="9.35" r="1.5"></circle>
                <circle id="Oval" cx="22" cy="5.5" r="1.5"></circle>
                <circle id="Oval" cx="18" cy="5.5" r="1.5"></circle>
                <circle id="Oval" cx="22" cy="1.516" r="1.5"></circle>
                <circle id="Oval" cx="26" cy="9.35" r="1.5"></circle>
                <circle id="Oval" cx="26" cy="5.5" r="1.5"></circle>
                <circle id="Oval" cx="26" cy="1.516" r="1.5"></circle>
                <circle id="Oval" cx="18" cy="1.516" r="1.5"></circle>
                <circle id="Oval" cx="34" cy="1.516" r="1.5"></circle>
                <circle id="Oval" cx="30" cy="1.516" r="1.5"></circle>
            </g>
        </g>
    </g>
</svg>