<?xml version="1.0" encoding="UTF-8"?>
<svg width="98px" height="117px" viewBox="0 0 98 117" version="1.1" xmlns="http://www.w3.org/2000/svg" xmlns:xlink="http://www.w3.org/1999/xlink">
    <!-- Generator: Sketch 52.6 (67491) - http://www.bohemiancoding.com/sketch -->
    <title>payment</title>
    <desc>Created with Sketch.</desc>
    <g id="Page-1" stroke="none" stroke-width="1" fill="none" fill-rule="evenodd">
        <g id="payment">
            <path d="M25.5263158,105.119617 C18.0861244,105.143541 10.6220096,105.167464 3.18181818,105.143541 C1.1722488,105.143541 -0.119617225,103.373206 0.215311005,101.315789 C1.45933014,93.3971292 2.63157895,85.4784689 3.87559809,77.5837321 C5,70.4784689 6.22009569,63.3732057 7.34449761,56.2440191 C8.15789474,51.1004785 8.87559809,45.9569378 9.68899522,40.8133971 C10.8851675,33.2296651 12.1291866,25.645933 13.3492823,18.062201 C14.0430622,13.708134 14.6889952,9.35406699 15.3588517,5 C15.7894737,2.15311005 18.0382775,0.215311005 20.9569378,0.215311005 C33.5406699,0.215311005 46.1483254,0.119617225 58.7320574,0.263157895 C65.5980861,0.33492823 72.4162679,1.19617225 78.6602871,4.37799043 C85.1435407,7.63157895 89.0909091,12.9186603 90.3827751,20.0956938 C90.9808612,23.4449761 90.7655502,26.7942584 90.1196172,30.1435407 C87.4401914,28.7799043 84.6172249,27.8947368 81.6985646,27.3205742 C78.062201,26.6028708 74.3301435,26.4114833 70.6220096,26.3636364 C61.2679426,26.2679426 51.8899522,26.291866 42.5358852,26.3636364 C40.5502392,26.3875598 38.7799043,27.2009569 37.9904306,29.2344498 C37.6315789,30.1674641 37.5119617,31.2200957 37.3684211,32.2488038 C36.722488,36.1722488 36.1004785,40.1196172 35.4784689,44.0669856 C35,47.1052632 34.4736842,50.1435407 34.0191388,53.1818182 C33.4449761,57.0334928 32.9425837,60.9090909 32.2009569,64.7368421 C31.9617225,66.0047847 31.4354067,67.2966507 31.8181818,68.6602871 C31.5311005,69.5215311 31.2679426,70.3827751 31.1244019,71.291866 C30.4545455,75.7177033 29.7607656,80.1435407 29.0669856,84.569378 C28.2296651,89.9282297 27.4401914,95.3110048 26.5311005,100.669856 C26.2440191,102.15311 26.3397129,103.732057 25.5263158,105.119617 Z" id="Path" fill="#FFFFFF"></path>
            <path d="M23.5263158,103.119617 C24.3397129,101.755981 24.2440191,100.15311 24.4832536,98.6698565 C25.3923445,93.3110048 26.1818182,87.9521531 27.0191388,82.569378 C27.7129187,78.1435407 28.4066986,73.7177033 29.076555,69.291866 C29.2200957,68.3827751 29.4832536,67.5215311 29.7703349,66.6602871 C31.062201,64.6507177 32.8564593,63.7655502 35.2966507,63.7894737 C41.3971292,63.7894737 47.4976077,64.1004785 53.5741627,63.3349282 C59.0047847,62.6650718 64.1961722,61.277512 69.0287081,58.6937799 C76.4688995,54.6985646 81.5406699,48.5980861 84.722488,40.8708134 C86.2296651,37.1866029 87.4258373,33.3827751 87.9282297,29.4114833 C87.9760766,29.3157895 88,29.2200957 88.0478469,29.1483254 C88.0956938,28.9090909 88.1435407,28.6698565 88.1913876,28.430622 C93.8851675,31.4449761 96.923445,36.277512 97.7368421,42.5933014 C98.4066986,47.784689 97.6172249,52.8325359 96.3253589,57.8564593 C95.2966507,61.8516746 93.7177033,65.6076555 91.4688995,69.0526316 C87.8086124,74.6985646 82.7129187,78.6220096 76.3732057,80.8708134 C73.0717703,82.0430622 69.6746411,82.7129187 66.2057416,83.1196172 C63.3110048,83.4545455 60.4162679,83.4545455 57.5215311,83.4784689 C54.6028708,83.4784689 52.7368421,85.0813397 52.3301435,87.9521531 C51.4449761,94.0047847 50.5598086,100.057416 49.507177,106.110048 C49.1483254,108.167464 48.861244,110.248804 48.5023923,112.282297 C48.0478469,114.770335 46.277512,116.253589 43.7655502,116.253589 C37.6650718,116.253589 31.5645933,116.253589 25.4641148,116.253589 C23.1435407,116.253589 22.0191388,114.913876 22.4019139,112.665072 C22.8564593,109.889952 23.3110048,107.138756 23.7655502,104.363636 C23.8373206,103.909091 23.9569378,103.454545 23.5263158,103.119617 Z" id="Path" fill="#F3F3F3"></path>
            <path d="M88.215311,29.3827751 C88.1674641,29.6220096 88.1196172,29.861244 88.0717703,30.1004785 C88.0239234,30.1961722 88,30.291866 87.9521531,30.3636364 C87.4497608,34.3349282 86.2535885,38.138756 84.7464115,41.8229665 C81.5645933,49.5502392 76.492823,55.6507177 69.0526316,59.645933 C64.2200957,62.2296651 59.0047847,63.6172249 53.5980861,64.2870813 C47.5215311,65.0287081 41.4210526,64.7416268 35.3205742,64.7416268 C32.8803828,64.7416268 31.0861244,65.6028708 29.7942584,67.6124402 C29.4114833,66.2727273 29.937799,64.9569378 30.1770335,63.6889952 C30.8947368,59.861244 31.4210526,55.9856459 31.9952153,52.1339713 C32.4497608,49.0956938 32.9760766,46.0574163 33.4545455,43.0191388 C34.076555,39.0717703 34.6985646,35.1483254 35.3444976,31.2009569 C35.5119617,30.1961722 35.6076555,29.1435407 35.9665072,28.1866029 C36.7559809,26.15311 38.5263158,25.3157895 40.5119617,25.3157895 C49.8660287,25.2440191 59.2440191,25.2200957 68.5980861,25.3157895 C72.3062201,25.3636364 76.0143541,25.5550239 79.6746411,26.2727273 C82.5933014,26.84689 85.4401914,27.7320574 88.0956938,29.0956938 C88.1435407,29.2392344 88.1913876,29.3110048 88.215311,29.3827751 Z" id="Path" fill="#FFFFFF"></path>
            <path d="M89.9760766,31.3875598 C90.0239234,31.291866 90.0478469,31.1961722 90.0956938,31.1244019 C90.0478469,31.1961722 90.0239234,31.291866 89.9760766,31.3875598 Z" id="Path" fill="#FFFFFF"></path>
        </g>
    </g>
</svg>