<svg height="512pt" viewBox="0 -30 512 512" width="512pt" xmlns="http://www.w3.org/2000/svg"><path d="m97.445312 137.347656h-45.078124v293.042969h45.078124v-116.03125l27.035157-96.996094zm0 0" fill="#4e555c"/><path d="m414.554688 137.347656h45.078124v293.042969h-45.078124v-116.03125l-27.035157-96.996094zm0 0" fill="#4e555c"/><path d="m470.925781 0h-429.851562c-22.683594 0-41.074219 18.390625-41.074219 41.074219v73.917969c0 22.683593 18.390625 41.070312 41.074219 41.070312h429.851562c22.683594 0 41.074219-18.386719 41.074219-41.070312v-73.917969c0-22.683594-18.390625-41.074219-41.074219-41.074219zm0 0" fill="#d6d8d9"/><path d="m30.90625 114.992188v-73.917969c0-22.683594 18.386719-41.074219 41.070312-41.074219h-30.902343c-22.683594 0-41.074219 18.390625-41.074219 41.074219v73.914062c0 22.683594 18.390625 41.074219 41.074219 41.074219h30.902343c-22.683593 0-41.070312-18.386719-41.070312-41.070312zm0 0" fill="#bebfc0"/><path d="m97.445312 78.03125v236.332031c0 14.460938 11.722657 26.183594 26.1875 26.183594h264.734376c14.464843 0 26.1875-11.722656 26.1875-26.183594v-236.332031zm0 0" fill="#f8eed3"/><path d="m444.523438 85.757812h-377.046876c-4.265624 0-7.726562-3.457031-7.726562-7.726562 0-4.265625 3.460938-7.726562 7.726562-7.726562h377.046876c4.265624 0 7.726562 3.460937 7.726562 7.726562 0 4.269531-3.460938 7.726562-7.726562 7.726562zm0 0" fill="#4e555c"/><path d="m387.519531 39.015625c0 7.828125-6.34375 14.171875-14.171875 14.171875s-14.171875-6.34375-14.171875-14.171875 6.34375-14.171875 14.171875-14.171875 14.171875 6.34375 14.171875 14.171875zm0 0" fill="#75c6b9"/><path d="m444.523438 39.015625c0 7.828125-6.34375 14.171875-14.171876 14.171875-7.828124 0-14.171874-6.34375-14.171874-14.171875s6.34375-14.171875 14.171874-14.171875c7.828126 0 14.171876 6.34375 14.171876 14.171875zm0 0" fill="#cf5564"/><g fill="#4e555c"><path d="m175.53125 221.707031c-4.265625 0-7.726562-3.457031-7.726562-7.726562v-14.5625c0-4.265625 3.460937-7.726563 7.726562-7.726563 4.269531 0 7.726562 3.460938 7.726562 7.726563v14.5625c0 4.269531-3.457031 7.726562-7.726562 7.726562zm0 0"/><path d="m336.46875 221.707031c-4.269531 0-7.726562-3.457031-7.726562-7.726562v-14.5625c0-4.265625 3.457031-7.726563 7.726562-7.726563 4.265625 0 7.726562 3.460938 7.726562 7.726563v14.5625c0 4.269531-3.460937 7.726562-7.726562 7.726562zm0 0"/><path d="m256 229.480469c-9.96875 0-19.328125-4.164063-25.675781-11.429688-2.8125-3.210937-2.480469-8.09375.730469-10.902343 3.210937-2.808594 8.09375-2.480469 10.902343.734374 3.414063 3.90625 8.53125 6.144532 14.042969 6.144532s10.628906-2.238282 14.042969-6.144532c2.808593-3.210937 7.6875-3.539062 10.902343-.730468 3.210938 2.808594 3.539063 7.6875.730469 10.902344-6.347656 7.261718-15.707031 11.425781-25.675781 11.425781zm0 0"/></g><path d="m105.769531 408.070312h-61.722656c-13.988281 0-25.324219 11.339844-25.324219 25.324219v7.121094c0 6.738281 5.460938 12.199219 12.195313 12.199219h87.976562c6.734375 0 12.195313-5.460938 12.195313-12.199219v-7.121094c0-13.984375-11.335938-25.324219-25.320313-25.324219zm0 0" fill="#d6d8d9"/><path d="m49.628906 440.515625v-7.121094c0-13.984375 11.335938-25.324219 25.320313-25.324219h-30.902344c-13.988281 0-25.324219 11.339844-25.324219 25.324219v7.121094c0 6.738281 5.460938 12.195313 12.195313 12.195313h30.90625c-6.734375.003906-12.195313-5.457032-12.195313-12.195313zm0 0" fill="#bebfc0"/><path d="m406.230469 408.070312h61.722656c13.988281 0 25.324219 11.339844 25.324219 25.324219v7.121094c0 6.738281-5.460938 12.199219-12.195313 12.199219h-87.976562c-6.734375 0-12.195313-5.460938-12.195313-12.199219v-7.121094c0-13.984375 11.335938-25.324219 25.320313-25.324219zm0 0" fill="#d6d8d9"/><path d="m411.816406 440.515625v-7.121094c0-13.984375 11.335938-25.324219 25.320313-25.324219h-30.90625c-13.984375 0-25.320313 11.339844-25.320313 25.324219v7.121094c0 6.738281 5.460938 12.195313 12.195313 12.195313h30.90625c-6.738281.003906-12.195313-5.457032-12.195313-12.195313zm0 0" fill="#bebfc0"/><path d="m97.445312 85.757812h317.109376v31.078126h-317.109376zm0 0" fill="#ecd8a4"/></svg>