<?xml version="1.0" encoding="UTF-8"?>
<svg width="64px" height="64px" viewBox="0 0 64 64" version="1.1" xmlns="http://www.w3.org/2000/svg" xmlns:xlink="http://www.w3.org/1999/xlink">
    <!-- Generator: Sketch 52.6 (67491) - http://www.bohemiancoding.com/sketch -->
    <title>iconfinder_rocket_1054990</title>
    <desc>Created with Sketch.</desc>
    <g id="Page-1" stroke="none" stroke-width="1" fill="none" fill-rule="evenodd">
        <g id="iconfinder_rocket_1054990">
            <circle id="Oval" fill="#7EC9FD" cx="32" cy="32" r="32"></circle>
            <g id="Group" opacity="0.2" transform="translate(25.000000, 33.000000)" fill="#231F20">
                <path d="M7.096,6.682 C5.54,8.238 1.009,19.222 1.009,19.222 C0.344,20.43 1.339,21.307 3.602,20.158 L11.733,15.723 C16.114,13.288 16.961,12.652 16.903,7.695 L16.088,1.842 C15.809,-0.163 14.308,-0.531 12.752,1.025 L7.096,6.682 Z" id="Path"></path>
            </g>
            <g id="Group" opacity="0.2" transform="translate(13.000000, 24.000000)" fill="#231F20">
                <path d="M14.072,10.658 C12.516,12.214 1.532,16.745 1.532,16.745 C0.324,17.41 -0.553,16.415 0.596,14.152 L5.031,6.021 C7.466,1.64 8.102,0.793 13.059,0.851 L18.912,1.666 C20.917,1.945 21.285,3.446 19.729,5.002 L14.072,10.658 Z" id="Path"></path>
            </g>
            <path d="M32.096,37.682 C30.54,39.238 26.009,50.222 26.009,50.222 C25.344,51.43 26.339,52.307 28.602,51.158 L36.733,46.723 C41.114,44.288 41.961,43.652 41.903,38.695 L41.088,32.842 C40.809,30.837 39.308,30.469 37.752,32.025 L32.096,37.682 Z" id="Path" fill="#0C3B82"></path>
            <path d="M27.072,32.658 C25.516,34.214 14.532,38.745 14.532,38.745 C13.324,39.41 12.447,38.415 13.596,36.152 L18.031,28.021 C20.466,23.64 21.102,22.793 26.059,22.851 L31.912,23.666 C33.917,23.945 34.285,25.446 32.729,27.002 L27.072,32.658 Z" id="Path" fill="#0C3B82"></path>
            <g id="Group" opacity="0.2" transform="translate(13.000000, 35.000000)" fill="#231F20">
                <path d="M8.247,4.545 C13.321,-0.529 17.584,1.019 17.584,1.019 C17.584,1.019 19.133,5.282 14.058,10.356 C8.983,15.43 0.767,19.116 0.127,18.476 C-0.493,17.855 3.172,9.619 8.247,4.545 Z" id="Path"></path>
            </g>
            <path d="M21.247,37.545 C26.321,32.471 30.584,34.019 30.584,34.019 C30.584,34.019 32.133,38.282 27.058,43.356 C21.983,48.43 13.767,52.116 13.127,51.476 C12.507,50.855 16.172,42.619 21.247,37.545 Z" id="Path" fill="#E0995E"></path>
            <path d="M25.489,33.302 C30.563,28.228 34.826,29.776 34.826,29.776 C34.826,29.776 36.375,34.039 31.3,39.113 C26.225,44.187 18.009,47.873 17.369,47.233 C16.749,46.613 20.415,38.376 25.489,33.302 Z" id="Path" fill="#F5CF87"></path>
            <g id="Group" opacity="0.2" transform="translate(23.000000, 15.000000)" fill="#231F20">
                <path d="M20.634,22.078 C12.824,29.888 0.851,27.751 0.851,27.751 C0.851,27.751 -1.286,15.779 6.524,7.968 C14.334,0.157 26.167,-0.673 27.721,0.881 C29.228,2.388 28.445,14.268 20.634,22.078 Z" id="Path"></path>
            </g>
            <path d="M43.634,35.078 C35.824,42.888 23.851,40.751 23.851,40.751 C23.851,40.751 21.714,28.779 29.524,20.968 C37.334,13.157 49.167,12.327 50.721,13.881 C52.228,15.388 51.445,27.268 43.634,35.078 Z" id="Path" fill="#FFFFFF"></path>
            <g id="Group" opacity="0.2" transform="translate(18.000000, 31.000000)" fill="#231F20">
                <path d="M3.023,15.994 C2.242,16.775 1.683,17.482 0.902,16.701 C0.121,15.92 0.828,15.361 1.609,14.58 L11.508,1.852 C12.289,1.071 15.677,0.364 16.458,1.145 C17.239,1.926 16.532,5.314 15.751,6.095 L3.023,15.994 Z" id="Path"></path>
            </g>
            <path d="M21.023,44.994 C20.242,45.775 19.683,46.482 18.902,45.701 C18.121,44.92 18.828,44.361 19.609,43.58 L29.508,30.852 C30.289,30.071 33.677,29.364 34.458,30.145 C35.239,30.926 34.532,34.314 33.751,35.095 L21.023,44.994 Z" id="Path" fill="#0C3B82"></path>
            <g id="Group" opacity="0.2" transform="translate(33.000000, 21.000000)" fill="#231F20">
                <circle id="Oval" transform="translate(6.603753, 6.150377) rotate(-45.000000) translate(-6.603753, -6.150377) " cx="6.6037534" cy="6.1503766" r="3.99996164"></circle>
            </g>
            <g id="Group" opacity="0.2" transform="translate(42.000000, 18.000000)" fill="#231F20">
                <circle id="Oval" transform="translate(3.260653, 3.493347) rotate(-45.000000) translate(-3.260653, -3.493347) " cx="3.2606534" cy="3.4933472" r="1.99998082"></circle>
            </g>
            <circle id="Oval" fill="#0C3B82" transform="translate(39.603753, 25.150377) rotate(-45.000000) translate(-39.603753, -25.150377) " cx="39.6037534" cy="25.1503766" r="3.99996164"></circle>
            <circle id="Oval" fill="#0C3B82" transform="translate(45.260653, 19.493347) rotate(-45.000000) translate(-45.260653, -19.493347) " cx="45.2606534" cy="19.4933472" r="1.99998082"></circle>
        </g>
    </g>
</svg>