<?xml version="1.0" encoding="UTF-8"?>
<svg width="64px" height="64px" viewBox="0 0 64 64" version="1.1" xmlns="http://www.w3.org/2000/svg" xmlns:xlink="http://www.w3.org/1999/xlink">
    <!-- Generator: Sketch 53 (72520) - https://sketchapp.com -->
    <title>iconfinder_locked_1055033</title>
    <desc>Created with Sketch.</desc>
    <g id="Page-1" stroke="none" stroke-width="1" fill="none" fill-rule="evenodd">
        <g id="iconfinder_locked_1055033" fill-rule="nonzero">
            <circle id="Oval" fill="#7EC9FD" cx="32" cy="32" r="32"></circle>
            <g id="Group" opacity="0.2" transform="translate(18.000000, 12.000000)" fill="#231F20">
                <g id="Path">
                    <path d="M27.5,21.167 L22.5,21.167 L22.5,13.833 C22.5,9.146 18.687,5.333 14,5.333 C9.313,5.333 5.5,9.146 5.5,13.833 L5.5,21.167 L0.5,21.167 L0.5,13.833 C0.5,6.389 6.556,0.333 14,0.333 C21.444,0.333 27.5,6.389 27.5,13.833 L27.5,21.167 Z"></path>
                </g>
            </g>
            <path d="M45.5,31.167 L40.5,31.167 L40.5,23.833 C40.5,19.146 36.687,15.333 32,15.333 C27.313,15.333 23.5,19.146 23.5,23.833 L23.5,31.167 L18.5,31.167 L18.5,23.833 C18.5,16.389 24.556,10.333 32,10.333 C39.444,10.333 45.5,16.389 45.5,23.833 L45.5,31.167 Z" id="Path" fill="#104084"></path>
            <path d="M32,32 C29.791,32 28,33.791 28,36 C28,37.477 28.809,38.752 30,39.445 L30,42 C30,43.105 30.895,44 32,44 C33.105,44 34,43.105 34,42 L34,39.445 C35.191,38.752 36,37.477 36,36 C36,33.791 34.209,32 32,32 Z" id="Path" fill="#104084"></path>
            <g id="Group" opacity="0.2" transform="translate(14.000000, 27.000000)" fill="#231F20">
                <path d="M33,0 L3,0 C1.343,0 0,1.343 0,3 L0,22 C0,23.657 1.343,25 3,25 L33,25 C34.657,25 36,23.657 36,22 L36,3 C36,1.343 34.657,0 33,0 Z M20,14.445 L20,17 C20,18.105 19.105,19 18,19 C16.895,19 16,18.105 16,17 L16,14.445 C14.809,13.752 14,12.477 14,11 C14,8.791 15.791,7 18,7 C20.209,7 22,8.791 22,11 C22,12.477 21.191,13.752 20,14.445 Z" id="Shape"></path>
            </g>
            <path d="M47,25 L17,25 C15.343,25 14,26.343 14,28 L14,47 C14,48.657 15.343,50 17,50 L47,50 C48.657,50 50,48.657 50,47 L50,28 C50,26.343 48.657,25 47,25 Z M34,39.445 L34,42 C34,43.105 33.105,44 32,44 C30.895,44 30,43.105 30,42 L30,39.445 C28.809,38.752 28,37.477 28,36 C28,33.791 29.791,32 32,32 C34.209,32 36,33.791 36,36 C36,37.477 35.191,38.752 34,39.445 Z" id="Shape" fill="#FFFFFF"></path>
        </g>
    </g>
</svg>