<?xml version="1.0" encoding="UTF-8"?>
<svg width="64px" height="64px" viewBox="0 0 64 64" version="1.1" xmlns="http://www.w3.org/2000/svg" xmlns:xlink="http://www.w3.org/1999/xlink">
    <!-- Generator: Sketch 53 (72520) - https://sketchapp.com -->
    <title>settings</title>
    <desc>Created with Sketch.</desc>
    <g id="Page-1" stroke="none" stroke-width="1" fill="none" fill-rule="evenodd">
        <g id="settings" fill-rule="nonzero">
            <circle id="Oval" fill="#7EC9FD" cx="32" cy="32" r="32"></circle>
            <g id="Group" opacity="0.2" transform="translate(12.000000, 14.000000)" fill="#231F20">
                <path d="M37.899,32.243 L23.757,18.1 C22.726,17.069 21.276,16.733 19.958,17.063 L11.865,9.07 L8.828,3.172 L2.917,0.128 L0.05,2.995 L3.094,8.906 L9.005,11.95 L9.013,11.942 L17.079,19.908 C16.728,21.239 17.058,22.713 18.101,23.757 L32.243,37.899 C33.805,39.461 36.338,39.461 37.9,37.899 C39.462,36.337 39.462,33.805 37.899,32.243 Z" id="Path"></path>
            </g>
            <polygon id="Path" fill="#4F5D73" points="34.499 37.263 18.397 21.359 21.331 18.567 37.433 34.471"></polygon>
            <path d="M49.899,49.899 C48.337,51.461 45.804,51.461 44.242,49.899 L30.101,35.757 C28.539,34.195 28.539,31.662 30.101,30.1 L30.101,30.1 C31.663,28.538 34.196,28.538 35.758,30.1 L49.9,44.242 C51.462,45.805 51.462,48.337 49.899,49.899 L49.899,49.899 Z" id="Path" fill="#0C3B82"></path>
            <g id="Group" opacity="0.2" transform="translate(10.000000, 12.000000)" fill="#0C3B82">
                <path d="M43.304,6.353 L36.828,12.829 C35.266,14.391 32.733,14.391 31.171,12.829 C29.609,11.267 29.609,8.734 31.171,7.172 L37.647,0.696 C36.516,0.252 35.289,0 34,0 C28.477,0 24,4.477 24,10 C24,11.289 24.252,12.516 24.696,13.647 L13.647,24.696 C12.516,24.252 11.289,24 10,24 C4.477,24 0,28.477 0,34 C0,35.289 0.252,36.516 0.696,37.647 L7.172,31.171 C8.734,29.609 11.267,29.609 12.829,31.171 C14.391,32.733 14.391,35.266 12.829,36.828 L6.353,43.304 C7.484,43.748 8.711,44 10,44 C15.523,44 20,39.523 20,34 C20,32.711 19.748,31.484 19.304,30.353 L30.353,19.304 C31.484,19.748 32.711,20 34,20 C39.523,20 44,15.523 44,10 C44,8.711 43.748,7.484 43.304,6.353 Z" id="Path"></path>
            </g>
            <rect id="Rectangle" fill="#FFFFFF" transform="translate(31.999600, 32.000000) rotate(-45.000000) translate(-31.999600, -32.000000) " x="23.4296822" y="28.0000384" width="17.1398356" height="7.99992328"></rect>
            <polygon id="Path" fill="#0C3B82" points="21.005 23.95 15.094 20.906 12.05 14.995 14.917 12.128 20.828 15.172 23.872 21.083"></polygon>
            <path d="M46.828,22.828 C45.266,24.39 42.733,24.39 41.171,22.828 C39.609,21.266 39.609,18.733 41.171,17.171 L47.647,10.695 C46.516,10.252 45.289,10 44,10 C38.477,10 34,14.477 34,20 C34,25.523 38.477,30 44,30 C49.523,30 54,25.523 54,20 C54,18.711 53.748,17.484 53.304,16.353 L46.828,22.828 Z" id="Path" fill="#FFFFFF"></path>
            <path d="M17.172,41.172 C18.734,39.61 21.267,39.61 22.829,41.172 C24.391,42.734 24.391,45.267 22.829,46.829 L16.353,53.305 C17.484,53.748 18.711,54 20,54 C25.523,54 30,49.523 30,44 C30,38.477 25.523,34 20,34 C14.477,34 10,38.477 10,44 C10,45.289 10.252,46.516 10.696,47.647 L17.172,41.172 Z" id="Path" fill="#FFFFFF"></path>
        </g>
    </g>
</svg>