<?xml version="1.0" encoding="UTF-8"?>
<svg width="128px" height="128px" viewBox="0 0 128 128" version="1.1" xmlns="http://www.w3.org/2000/svg" xmlns:xlink="http://www.w3.org/1999/xlink">
    <!-- Generator: Sketch 53 (72520) - https://sketchapp.com -->
    <title>iconfinder__Tick_1904674</title>
    <desc>Created with Sketch.</desc>
    <g id="Page-1" stroke="none" stroke-width="1" fill="none" fill-rule="evenodd">
        <g id="iconfinder__Tick_1904674" fill="#51D9B5" fill-rule="nonzero">
            <path d="M64,7.77156117e-18 C28.653776,-2.15656044e-15 4.32866401e-15,28.653776 0,64 C-4.32866401e-15,99.346224 28.653776,128 64,128 C99.346224,128 128,99.346224 128,64 C127.961421,28.6697684 99.3302316,0.0385791814 64,7.77156117e-18 Z M64,122 C31.9674845,122 6,96.0325155 6,64 C6,31.9674845 31.9674845,6 64,6 C96.0325155,6 122,31.9674845 122,64 C121.961429,96.0165253 96.0165253,121.961429 64,122 Z" id="Shape"></path>
            <path d="M87.9,42.36 L50.42,79.22 L40.17,68.43 C39.0205194,67.2758797 37.1601073,67.2498771 35.9788203,68.3714209 C34.7975333,69.4929646 34.727035,71.3522224 35.82,72.56 L48.17,85.56 C48.7237787,86.1411535 49.4873683,86.4761244 50.29,86.49 L50.34,86.49 C51.1256017,86.4893517 51.8796042,86.1805697 52.44,85.63 L92.09,46.63 C92.8545484,45.8779559 93.1598095,44.7751569 92.8907944,43.7370165 C92.6217793,42.6988762 91.8193578,41.8831128 90.7857944,41.5970165 C89.7522309,41.3109202 88.6445484,41.5979559 87.88,42.35 L87.9,42.36 Z" id="Path"></path>
        </g>
    </g>
</svg>