<svg id="Flat" height="512" viewBox="0 0 64 64" width="512" xmlns="http://www.w3.org/2000/svg"><g id="Stroke_copy_2" data-name="Stroke copy 2"><path d="m60.99 23.05-58-.1 29.02-15.95z" fill="#93999a"/><path d="m3 23h58v38h-58z" fill="#93999a"/><path d="m18 27h28a8 8 0 0 1 8 8v26a0 0 0 0 1 0 0h-44a0 0 0 0 1 0 0v-26a8 8 0 0 1 8-8z" fill="#656b76"/><path d="m33 49h12v12h-12z" fill="#fcbc04"/><path d="m37 49h4v5h-4z" fill="#f9e109"/><path d="m45 49h-12v12h12v-3h-5a4 4 0 0 1 -4-4v-5z" fill="#e59730"/><path d="m21 49h12v12h-12z" fill="#fcbc04"/><path d="m25 49h4v5h-4z" fill="#f9e109"/><path d="m33 49h-12v12h12v-3h-5a4 4 0 0 1 -4-4v-5z" fill="#e59730"/><path d="m9 49h12v12h-12z" fill="#fcbc04"/><path d="m13 49h4v5h-4z" fill="#f9e109"/><path d="m21 49h-12v12h12v-3h-5a4 4 0 0 1 -4-4v-5z" fill="#e59730"/><path d="m9 37h12v12h-12z" fill="#fcbc04"/><path d="m13 37h4v5h-4z" fill="#f9e109"/><path d="m21 37h-12v12h12v-3h-5a4 4 0 0 1 -4-4v-5z" fill="#e59730"/><path d="m61 23.05-29-16.05-29 16h9 39.87.06zm-43.55-3.05 14.55-8 14.44 8z" fill="#656b76"/><g fill="#4891d3"><path d="m47 24.05a1 1 0 0 1 -.85-.47l-6.71-10.58-6.59 10.53a1 1 0 0 1 -1.7-1.06l7.43-11.89a1 1 0 0 1 .85-.47 1 1 0 0 1 .85.47l7.55 11.94a1 1 0 0 1 -.31 1.38 1 1 0 0 1 -.52.15z"/><path d="m32 24a1 1 0 0 1 -.85-.47l-6.6-10.53-6.72 10.49a1 1 0 0 1 -1.69-1.08l7.58-11.85a1 1 0 0 1 .84-.46 1 1 0 0 1 .85.47l7.44 11.9a1 1 0 0 1 -.32 1.38 1 1 0 0 1 -.53.15z"/><path d="m32 24a1 1 0 0 1 -.85-.47l-7.44-11.9a1 1 0 1 1 1.7-1.06l6.59 10.54 6.58-10.53a1 1 0 1 1 1.7 1.06l-7.43 11.89a1 1 0 0 1 -.85.47z"/><path d="m47 24a.94.94 0 0 1 -.48-.13 1 1 0 0 1 -.4-1.35l3.24-5.95a1 1 0 0 1 1.76 1l-3.27 5.93a1 1 0 0 1 -.85.5z"/><path d="m17 24a1 1 0 0 1 -.88-.53l-3.22-5.91a1 1 0 0 1 .4-1.36 1 1 0 0 1 1.36.4l3.23 5.95a1 1 0 0 1 -.4 1.35.9.9 0 0 1 -.49.1z"/><path d="m3 22h58v2h-58z"/></g><path d="m46 43h-4a1 1 0 0 1 0-2h3v-7h-18v7h3a1 1 0 0 1 0 2h-4a1 1 0 0 1 -1-1v-9a1 1 0 0 1 1-1h20a1 1 0 0 1 1 1v9a1 1 0 0 1 -1 1z" fill="#57b7eb"/><path d="m36 34a1 1 0 0 1 -1-1v-4a1 1 0 0 1 1-1h18a1 1 0 0 1 0 2h-17v3a1 1 0 0 1 -1 1z" fill="#57b7eb"/><path d="m60.91 19-28.88-16-29.03 15.95v.05 3.94l29.01-15.94 28.89 16h.1v-4z" fill="#4891d3"/><path d="m60.91 19-28.88-16-29.03 15.95v.05 2-.05l29.03-15.95 28.88 16h.09v-2z" fill="#57b7eb"/><path d="m11 22h50a0 0 0 0 1 0 0v1a0 0 0 0 1 0 0h-49a1 1 0 0 1 -1-1 0 0 0 0 1 0 0z" fill="#57b7eb"/><path d="m30 37h12v12h-12z" fill="#fcbc04"/><path d="m34 37h4v5h-4z" fill="#f9e109"/><path d="m42 37h-12v12h12v-3h-5a4 4 0 0 1 -4-4v-5z" fill="#e59730"/><path d="m51 28h4v33h-4z" fill="#a1d51c"/><path d="m53 28h2a0 0 0 0 1 0 0v30a0 0 0 0 1 0 0 2 2 0 0 1 -2-2v-28a0 0 0 0 1 0 0z" fill="#c4f236"/><path d="m37 32h-2v-2l2 1z" fill="#4891d3"/></g></svg>